# xmcd CD database file
#
# Track frame offsets:
#	150
#	16461
#	33657
#	42665
#	60572
#	73286
#	94450
#	111740
#	124232
#	141886
#
# Disc length: 2194 seconds
#
# Revision: 0
# Processed by: cddbd v1.5.2PL0 Copyright (c) Steve Scherf et al.
# Submitted via: CDex 1.51
#
DISCID=a308900a
DTITLE=Guttane - Me and God
DYEAR=2008
DGENRE=Country
TTITLE0=Då han kom te
TTITLE1=Det var nåde
TTITLE2=Halleluja, I'm ready
TTITLE3=Blomståren
TTITLE4=Still in the spirit
TTITLE5=Blott en dag
TTITLE6=I can't even walk
TTITLE7=Me and God
TTITLE8=Gud æ gåo heile tia
TTITLE9=Go rest high
EXTD=YEAR: 2008
EXTT0=
EXTT1=
EXTT2=
EXTT3=
EXTT4=
EXTT5=
EXTT6=
EXTT7=
EXTT8=
EXTT9=
PLAYORDER=
